<svg id="svg" xmlns="http://www.w3.org/2000/svg" xmlns:xlink="http://www.w3.org/1999/xlink" width="400" height="400" viewBox="0, 0, 400,400"><g id="svgg"><path id="path0" d="M0.000 200.000 L 0.000 400.000 200.000 400.000 L 400.000 400.000 400.000 200.000 L 400.000 0.000 200.000 0.000 L 0.000 0.000 0.000 200.000 M210.400 34.592 C 219.456 35.160,225.105 36.128,226.965 37.430 C 227.412 37.744,228.413 38.006,229.189 38.014 C 229.965 38.022,231.770 38.285,233.200 38.600 C 234.630 38.915,236.443 39.178,237.230 39.186 C 239.129 39.205,244.951 40.968,246.315 41.938 C 247.445 42.742,248.249 42.996,254.172 44.421 C 257.492 45.221,260.800 46.776,260.800 47.538 C 260.800 47.718,261.655 48.083,262.700 48.349 C 263.745 48.615,265.320 49.015,266.200 49.239 C 267.080 49.462,268.199 49.905,268.686 50.222 C 269.173 50.540,269.768 50.800,270.008 50.800 C 270.249 50.800,270.930 51.330,271.523 51.977 C 272.121 52.630,273.312 53.330,274.200 53.550 C 277.291 54.314,279.014 55.133,280.483 56.538 C 281.299 57.317,282.885 58.280,284.007 58.678 C 285.129 59.075,286.891 60.070,287.924 60.888 C 290.363 62.824,293.634 64.791,294.420 64.796 C 294.760 64.798,295.480 65.515,296.020 66.389 C 296.559 67.263,297.153 67.983,297.340 67.989 C 298.364 68.022,300.837 69.633,302.705 71.487 C 303.877 72.649,305.103 73.600,305.430 73.600 C 305.757 73.600,306.129 73.870,306.255 74.200 C 306.382 74.530,306.632 74.800,306.810 74.800 C 306.988 74.800,308.784 76.420,310.800 78.400 C 312.816 80.380,314.631 82.000,314.833 82.000 C 315.035 82.000,315.200 82.262,315.200 82.581 C 315.200 82.901,316.055 84.089,317.100 85.220 C 318.874 87.142,319.016 87.455,319.234 89.939 C 319.559 93.617,317.827 95.157,316.086 92.739 C 315.804 92.347,314.364 91.665,312.886 91.225 C 311.378 90.775,309.665 89.936,308.981 89.312 C 307.642 88.091,305.028 86.711,302.706 86.000 C 301.884 85.748,301.108 85.375,300.982 85.171 C 300.856 84.967,300.483 84.800,300.154 84.800 C 299.824 84.800,299.070 84.290,298.477 83.666 C 297.466 82.602,292.983 80.810,291.292 80.793 C 290.656 80.787,289.376 80.170,284.863 77.695 C 283.956 77.198,282.176 76.639,280.907 76.454 C 276.238 75.772,270.518 74.048,269.154 72.912 C 268.531 72.393,267.321 72.203,258.600 71.252 C 235.444 68.728,227.377 68.754,206.400 71.417 C 203.870 71.738,201.260 72.001,200.600 72.001 C 199.940 72.001,198.140 72.628,196.600 73.394 C 195.060 74.160,193.571 74.790,193.292 74.793 C 193.012 74.797,191.482 75.148,189.892 75.574 C 188.301 76.000,186.010 76.564,184.800 76.829 C 183.590 77.093,182.063 77.690,181.406 78.155 C 179.348 79.611,178.306 80.073,174.562 81.190 C 172.561 81.788,170.538 82.662,170.066 83.134 C 169.594 83.606,168.394 84.375,167.399 84.843 C 166.404 85.310,165.491 85.852,165.371 86.046 C 165.251 86.241,164.663 86.400,164.065 86.400 C 162.896 86.400,162.037 86.897,160.132 88.676 C 158.835 89.888,155.272 91.802,153.550 92.212 C 152.973 92.349,152.305 92.891,152.065 93.416 C 151.620 94.393,148.823 96.400,147.905 96.400 C 147.625 96.400,146.439 97.390,145.271 98.600 C 144.103 99.810,142.963 100.800,142.737 100.800 C 141.273 100.800,127.729 113.744,125.865 116.925 C 125.257 117.962,123.973 119.620,123.011 120.610 C 122.049 121.600,121.146 122.937,121.004 123.580 C 120.863 124.224,119.949 125.524,118.974 126.469 C 117.998 127.415,117.200 128.333,117.200 128.511 C 117.200 129.508,114.528 134.378,113.420 135.400 C 112.704 136.060,111.990 137.140,111.833 137.800 C 111.474 139.309,108.757 144.800,108.369 144.800 C 107.964 144.800,106.403 147.881,106.387 148.712 C 106.366 149.825,104.942 153.642,104.244 154.458 C 103.890 154.871,103.600 155.347,103.600 155.516 C 103.600 155.684,103.240 156.130,102.800 156.507 C 102.360 156.884,102.000 157.621,102.000 158.146 C 102.000 158.670,101.730 159.865,101.400 160.800 C 101.070 161.735,100.800 162.953,100.800 163.506 C 100.800 164.060,100.452 165.252,100.027 166.156 C 97.292 171.970,96.814 173.205,96.606 175.000 C 95.934 180.777,93.604 191.187,92.744 192.255 C 91.146 194.238,91.338 234.493,92.959 237.525 C 93.829 239.153,95.039 243.734,95.777 248.200 C 96.783 254.284,97.643 257.716,98.383 258.600 C 99.379 259.790,100.299 262.154,101.420 266.400 C 101.972 268.490,102.650 270.380,102.927 270.600 C 103.973 271.432,105.164 273.519,105.986 275.958 C 106.814 278.415,107.739 280.185,108.622 281.000 C 109.688 281.983,112.000 286.362,112.000 287.396 C 112.000 287.676,112.633 288.388,113.406 288.977 C 114.179 289.567,115.240 290.893,115.764 291.925 C 116.288 292.956,117.321 294.437,118.059 295.216 C 119.501 296.739,121.719 299.504,121.928 300.039 C 121.998 300.220,123.078 301.429,124.328 302.726 C 125.578 304.023,127.258 305.786,128.062 306.642 C 129.874 308.573,134.590 312.879,136.200 314.072 C 136.860 314.561,138.445 315.915,139.723 317.081 C 141.000 318.246,142.219 319.200,142.431 319.200 C 143.151 319.200,145.973 321.286,146.194 321.981 C 146.411 322.664,146.676 322.826,149.785 324.179 C 150.657 324.558,152.187 325.534,153.185 326.348 C 155.150 327.949,157.176 329.030,158.872 329.380 C 159.462 329.502,160.214 329.871,160.543 330.201 C 160.873 330.530,161.316 330.800,161.529 330.800 C 161.741 330.800,162.018 331.070,162.145 331.400 C 162.271 331.730,162.651 332.000,162.987 332.000 C 163.324 332.000,163.600 332.136,163.600 332.302 C 163.600 332.681,164.992 333.254,168.690 334.399 C 170.279 334.891,171.787 335.543,172.039 335.847 C 172.291 336.151,172.673 336.400,172.887 336.400 C 173.101 336.400,173.783 336.761,174.402 337.202 C 175.021 337.642,176.759 338.291,178.264 338.642 C 182.562 339.645,184.782 340.387,187.833 341.837 C 189.391 342.578,191.821 343.354,193.233 343.562 C 200.775 344.672,205.283 345.703,210.600 347.535 C 214.320 348.816,228.315 349.489,237.400 348.823 C 240.920 348.565,245.600 348.252,247.800 348.128 C 250.418 347.979,252.284 347.659,253.200 347.201 C 255.048 346.276,261.436 344.800,263.592 344.800 C 265.131 344.800,267.884 344.427,275.496 343.188 C 276.928 342.955,278.614 342.360,279.452 341.791 C 280.255 341.246,281.315 340.800,281.807 340.800 C 282.299 340.800,283.309 340.550,284.051 340.245 C 284.793 339.939,286.210 339.573,287.200 339.430 C 291.224 338.849,295.047 337.833,295.826 337.138 C 296.280 336.732,296.910 336.396,297.226 336.391 C 297.542 336.386,298.250 336.030,298.800 335.600 C 299.350 335.170,300.201 334.814,300.692 334.809 C 301.182 334.804,302.262 334.544,303.092 334.232 C 303.921 333.919,305.306 333.545,306.169 333.401 C 307.032 333.256,308.213 332.689,308.794 332.141 C 310.014 330.989,313.112 329.594,316.700 328.580 C 318.210 328.153,319.200 327.656,319.200 327.324 C 319.200 327.022,319.515 326.655,319.900 326.508 C 320.285 326.361,320.949 325.916,321.375 325.520 C 321.802 325.124,322.470 324.800,322.861 324.800 C 324.052 324.800,327.740 323.198,328.800 322.220 C 330.690 320.476,332.646 319.827,334.416 320.358 C 337.428 321.260,337.361 322.544,334.138 325.695 C 333.072 326.738,331.787 328.126,331.282 328.780 C 330.777 329.434,329.472 330.455,328.382 331.048 C 327.292 331.642,326.400 332.251,326.400 332.402 C 326.400 332.879,324.850 334.489,323.906 334.992 C 321.127 336.473,319.629 337.451,317.818 338.969 C 316.708 339.899,314.900 340.987,313.800 341.387 C 312.700 341.787,311.185 342.719,310.433 343.457 C 309.682 344.196,308.899 344.800,308.695 344.800 C 308.491 344.800,307.846 345.127,307.262 345.527 C 306.678 345.927,305.400 346.485,304.423 346.767 C 303.446 347.048,301.909 347.919,301.008 348.703 C 299.441 350.066,296.362 351.422,293.800 351.878 C 293.140 351.995,292.060 352.595,291.400 353.211 C 290.103 354.422,286.297 356.105,283.794 356.575 C 282.300 356.855,281.597 357.181,277.600 359.443 C 276.610 360.003,274.990 360.611,274.000 360.793 C 268.595 361.787,267.152 362.193,264.600 363.441 C 261.693 364.863,256.030 366.388,253.600 366.403 C 251.765 366.415,245.041 367.841,243.896 368.461 C 237.380 371.989,193.316 372.620,178.413 369.399 C 176.770 369.043,175.233 368.593,174.998 368.399 C 174.403 367.905,167.341 366.400,165.618 366.400 C 162.589 366.400,155.526 364.302,153.955 362.937 C 153.601 362.628,152.341 362.210,151.155 362.007 C 145.079 360.966,140.482 359.504,139.797 358.395 C 139.459 357.848,136.971 356.823,135.000 356.419 C 132.188 355.842,129.430 354.632,128.400 353.523 C 127.850 352.931,126.680 352.272,125.800 352.058 C 124.920 351.845,123.570 351.448,122.800 351.175 C 122.030 350.903,120.905 350.505,120.300 350.291 C 119.695 350.078,119.200 349.745,119.200 349.551 C 119.200 349.358,118.930 349.200,118.600 349.200 C 118.270 349.200,118.000 348.974,118.000 348.698 C 118.000 348.193,116.996 347.658,113.622 346.366 C 110.786 345.280,109.642 344.591,108.440 343.245 C 107.829 342.560,107.077 342.000,106.770 342.000 C 105.642 342.000,101.851 339.771,100.446 338.282 C 99.651 337.439,98.190 336.306,97.200 335.765 C 96.210 335.223,94.993 334.186,94.495 333.459 C 93.998 332.732,92.766 331.725,91.757 331.221 C 90.531 330.609,89.577 329.732,88.878 328.575 C 88.251 327.537,87.434 326.745,86.837 326.595 C 85.700 326.310,84.280 324.903,83.389 323.178 C 83.054 322.530,82.597 322.000,82.374 322.000 C 81.536 322.000,79.544 320.174,78.572 318.517 C 78.019 317.573,77.373 316.800,77.137 316.800 C 76.442 316.800,73.600 313.567,73.600 312.778 C 73.600 312.380,73.240 311.940,72.800 311.800 C 72.360 311.660,72.000 311.378,72.000 311.173 C 72.000 310.968,71.811 310.800,71.581 310.800 C 70.967 310.800,69.227 308.707,69.213 307.950 C 69.206 307.593,68.375 306.513,67.367 305.550 C 66.359 304.588,65.362 303.440,65.152 303.000 C 64.303 301.222,62.884 299.152,61.458 297.611 C 60.630 296.716,59.680 295.312,59.347 294.492 C 58.032 291.250,57.788 290.800,57.348 290.800 C 56.520 290.800,54.267 286.880,53.555 284.200 C 53.321 283.320,52.651 282.147,52.065 281.593 C 50.680 280.285,49.510 278.017,48.590 274.862 C 48.183 273.467,47.381 271.822,46.806 271.207 C 45.789 270.118,43.929 265.242,43.436 262.371 C 43.301 261.584,42.689 260.144,42.077 259.171 C 40.815 257.165,39.202 252.530,39.195 250.892 C 39.193 250.291,38.925 248.810,38.600 247.600 C 38.275 246.390,38.007 244.837,38.005 244.149 C 38.002 243.461,37.748 242.689,37.440 242.433 C 37.132 242.177,36.513 240.760,36.065 239.284 C 31.412 223.953,32.269 171.068,37.278 164.446 C 37.675 163.921,38.000 163.005,38.000 162.410 C 38.000 161.814,38.268 160.444,38.596 159.364 C 38.923 158.284,39.193 156.922,39.196 156.338 C 39.202 154.856,40.974 149.769,41.757 148.986 C 42.717 148.026,43.056 147.237,43.556 144.800 C 44.134 141.981,45.594 138.000,46.049 138.000 C 46.242 138.000,46.400 137.714,46.400 137.364 C 46.400 137.014,46.732 136.429,47.138 136.064 C 47.543 135.699,48.192 134.320,48.580 133.000 C 49.423 130.131,51.005 126.976,52.291 125.600 C 52.805 125.050,53.340 124.150,53.481 123.600 C 54.004 121.553,55.620 118.530,56.791 117.408 C 57.456 116.771,58.000 116.086,58.000 115.885 C 58.000 115.223,60.160 110.800,60.483 110.800 C 60.657 110.800,60.800 110.536,60.800 110.214 C 60.800 109.892,61.201 109.413,61.692 109.151 C 63.026 108.437,63.600 107.748,63.600 106.859 C 63.600 106.144,64.538 104.722,67.468 101.000 C 68.874 99.213,68.950 99.100,69.600 97.810 C 69.930 97.156,70.939 95.896,71.841 95.010 C 72.744 94.125,73.993 92.517,74.616 91.437 C 75.302 90.250,76.184 89.310,76.849 89.059 C 77.544 88.797,78.214 88.057,78.667 87.051 C 79.473 85.265,80.561 84.095,81.905 83.570 C 82.403 83.375,83.024 82.717,83.285 82.108 C 83.819 80.865,86.715 78.000,87.437 78.000 C 87.695 78.000,88.026 77.685,88.171 77.300 C 88.651 76.028,89.385 74.800,89.666 74.800 C 89.818 74.800,90.181 74.573,90.471 74.295 C 90.762 74.018,91.500 73.569,92.111 73.299 C 92.722 73.028,93.334 72.490,93.471 72.103 C 93.895 70.903,95.258 69.643,97.099 68.752 C 98.070 68.282,98.967 67.606,99.093 67.249 C 99.507 66.073,100.497 65.212,102.562 64.232 C 103.683 63.700,105.129 62.710,105.775 62.032 C 106.421 61.354,107.186 60.800,107.475 60.800 C 107.764 60.800,108.000 60.650,108.000 60.468 C 108.000 60.122,108.626 59.786,111.529 58.574 C 112.480 58.177,113.987 57.166,114.878 56.326 C 115.770 55.487,116.741 54.800,117.036 54.800 C 117.331 54.800,118.164 54.541,118.886 54.224 C 119.609 53.908,120.685 53.547,121.277 53.422 C 121.870 53.298,122.918 52.682,123.607 52.053 C 125.002 50.778,127.403 49.644,131.000 48.559 C 132.320 48.161,133.760 47.546,134.200 47.191 C 136.254 45.538,141.383 43.600,143.702 43.600 C 145.098 43.600,147.204 42.832,148.600 41.814 C 150.483 40.441,161.535 37.957,165.611 37.992 C 166.167 37.996,167.033 37.712,167.536 37.360 C 169.120 36.250,174.391 35.197,180.400 34.790 C 193.318 33.914,198.987 33.877,210.400 34.592 M296.048 91.523 C 296.792 91.903,297.845 92.525,298.389 92.907 C 298.933 93.288,299.625 93.600,299.927 93.600 C 301.570 93.600,306.000 95.365,307.230 96.510 C 308.555 97.742,310.321 98.623,312.400 99.089 C 312.950 99.213,313.878 99.648,314.462 100.057 C 315.046 100.466,315.721 100.800,315.962 100.800 C 316.203 100.800,316.400 101.004,316.400 101.253 C 316.400 101.913,317.984 103.182,319.174 103.475 C 320.449 103.789,323.221 105.194,323.929 105.884 C 324.219 106.168,324.603 106.400,324.782 106.400 C 324.961 106.400,325.193 106.715,325.299 107.100 C 325.404 107.485,326.190 108.135,327.045 108.545 C 330.202 110.057,330.619 110.347,331.525 111.659 C 332.033 112.397,332.989 113.184,333.648 113.410 C 335.020 113.879,337.458 116.122,337.814 117.243 C 337.946 117.659,338.278 118.000,338.551 118.000 C 339.291 118.000,341.656 120.446,342.074 121.643 C 342.274 122.216,342.925 122.929,343.519 123.226 C 344.867 123.900,345.855 125.018,346.591 126.702 C 346.905 127.418,347.801 128.382,348.584 128.844 C 349.583 129.433,350.388 130.447,351.281 132.242 C 351.981 133.649,352.789 134.800,353.077 134.800 C 353.365 134.800,353.600 134.967,353.600 135.171 C 353.600 135.376,353.847 135.790,354.148 136.091 C 354.905 136.848,355.867 138.775,356.633 141.069 C 356.988 142.131,357.678 143.450,358.166 144.000 C 359.700 145.727,360.252 146.890,361.395 150.800 C 362.006 152.890,362.752 154.744,363.053 154.920 C 363.354 155.096,363.600 155.501,363.600 155.820 C 363.600 156.139,363.736 156.400,363.902 156.400 C 364.524 156.400,365.750 160.229,367.002 166.085 C 367.364 167.782,367.977 169.582,368.363 170.085 C 369.773 171.922,371.114 178.536,372.027 188.165 C 372.255 190.566,372.615 192.854,372.827 193.251 C 375.626 198.481,375.717 221.965,372.967 229.305 C 372.656 230.132,372.223 232.742,372.004 235.105 C 371.785 237.467,371.429 240.120,371.212 241.000 C 370.996 241.880,370.815 243.259,370.810 244.064 C 370.799 245.687,369.408 249.725,368.401 251.057 C 368.044 251.528,367.448 253.013,367.076 254.357 C 366.704 255.701,366.089 257.925,365.708 259.300 C 365.052 261.672,363.384 264.800,362.776 264.800 C 362.621 264.800,362.011 266.318,361.420 268.174 C 360.829 270.029,360.088 271.761,359.773 272.023 C 359.458 272.284,359.200 272.647,359.200 272.828 C 359.200 273.010,358.789 273.603,358.286 274.145 C 357.334 275.172,356.993 275.798,355.751 278.800 C 354.995 280.626,353.803 281.963,352.908 281.987 C 352.637 281.994,352.292 282.495,352.142 283.100 C 351.758 284.648,350.095 287.216,348.100 289.341 C 347.165 290.338,346.400 291.344,346.400 291.577 C 346.400 291.809,346.216 292.000,345.990 292.000 C 345.765 292.000,345.406 292.457,345.194 293.017 C 344.981 293.576,344.308 294.320,343.698 294.670 C 343.088 295.020,341.965 296.137,341.204 297.153 C 340.442 298.169,339.367 299.360,338.814 299.800 C 338.260 300.240,336.726 301.632,335.404 302.894 C 331.841 306.294,328.685 309.200,328.555 309.200 C 328.493 309.200,327.937 309.668,327.321 310.240 C 326.704 310.812,325.711 311.534,325.113 311.844 C 324.516 312.153,323.256 313.147,322.313 314.051 C 321.371 314.956,319.880 316.016,319.000 316.407 C 318.120 316.799,316.536 317.947,315.480 318.960 C 314.424 319.972,313.337 320.800,313.064 320.800 C 312.318 320.800,309.860 322.130,308.134 323.468 C 305.882 325.212,303.803 326.400,303.000 326.400 C 302.352 326.400,299.667 327.820,299.200 328.411 C 298.428 329.387,291.763 332.000,290.046 332.000 C 289.581 332.000,288.840 332.360,288.400 332.800 C 287.960 333.240,287.479 333.600,287.331 333.600 C 287.184 333.600,286.779 333.840,286.431 334.134 C 285.670 334.779,280.201 336.403,278.799 336.401 C 277.402 336.399,272.312 337.896,272.000 338.400 C 271.504 339.202,266.154 340.439,261.600 340.803 C 259.070 341.006,254.930 341.357,252.400 341.583 C 246.681 342.093,229.166 342.100,223.800 341.594 C 221.600 341.387,218.180 341.108,216.200 340.975 C 212.018 340.694,208.080 339.759,202.799 337.794 C 202.029 337.507,200.229 337.063,198.799 336.807 C 194.148 335.975,189.841 334.675,187.834 333.497 C 186.753 332.862,184.208 331.912,182.179 331.384 C 178.948 330.545,175.815 329.191,175.200 328.368 C 174.784 327.811,171.778 326.400,171.006 326.399 C 170.563 326.398,169.611 326.038,168.890 325.599 C 168.170 325.159,167.344 324.800,167.055 324.800 C 166.765 324.800,165.992 324.210,165.336 323.489 C 164.577 322.655,163.281 321.892,161.772 321.389 C 160.467 320.955,159.200 320.420,158.956 320.200 C 156.547 318.031,155.495 317.278,153.228 316.099 C 150.315 314.585,149.200 313.723,149.200 312.985 C 149.200 312.715,148.221 312.030,147.024 311.464 C 145.828 310.897,144.433 309.868,143.924 309.178 C 143.416 308.487,142.240 307.475,141.311 306.929 C 140.382 306.383,138.880 305.051,137.973 303.968 C 137.067 302.886,136.172 302.000,135.983 302.000 C 135.531 302.000,133.600 300.200,133.600 299.778 C 133.600 299.389,130.365 296.400,129.944 296.400 C 129.786 296.400,129.238 295.545,128.728 294.500 C 128.218 293.455,127.658 292.538,127.485 292.462 C 126.403 291.986,124.732 290.112,123.950 288.496 C 123.448 287.460,122.559 286.209,121.974 285.717 C 120.953 284.858,118.000 279.663,118.000 278.725 C 118.000 278.476,117.479 277.805,116.843 277.236 C 115.651 276.169,113.922 272.444,113.449 269.923 C 113.302 269.137,112.654 267.767,112.010 266.877 C 110.433 264.700,107.975 256.468,107.995 253.431 C 107.998 253.009,107.695 252.326,107.323 251.914 C 105.929 250.374,104.928 246.096,104.021 237.800 C 103.805 235.820,103.343 231.590,102.995 228.400 C 102.647 225.210,102.210 221.430,102.023 220.000 C 99.969 204.290,100.657 192.315,104.432 178.108 C 104.854 176.518,105.200 174.963,105.200 174.652 C 105.200 174.088,106.152 171.842,107.149 170.056 L 107.675 169.112 108.390 170.287 C 109.562 172.215,110.448 177.026,110.804 183.400 C 111.511 196.073,112.168 200.718,113.915 205.400 C 115.155 208.723,115.820 211.567,116.395 216.000 C 116.783 218.985,117.838 222.653,118.411 223.007 C 118.948 223.338,120.293 226.362,120.743 228.248 C 121.628 231.954,122.419 234.566,122.719 234.775 C 123.760 235.500,126.400 240.826,126.400 242.203 C 126.400 242.707,127.030 244.056,127.800 245.200 C 128.570 246.344,129.200 247.360,129.200 247.457 C 129.200 247.554,129.560 248.020,130.000 248.492 C 130.440 248.964,130.800 249.572,130.800 249.842 C 130.800 251.043,132.495 254.107,133.786 255.241 C 134.564 255.924,135.200 256.814,135.200 257.218 C 135.200 257.622,135.375 258.061,135.589 258.193 C 135.802 258.325,136.322 259.213,136.744 260.166 C 137.165 261.119,138.175 262.504,138.988 263.244 C 139.801 263.983,140.909 265.527,141.452 266.673 C 141.994 267.820,142.786 268.868,143.210 269.003 C 144.025 269.262,146.400 271.914,146.400 272.565 C 146.400 273.035,148.020 274.800,148.452 274.800 C 148.896 274.800,150.800 276.761,150.800 277.218 C 150.800 277.698,152.280 279.200,152.753 279.200 C 153.215 279.200,156.400 282.388,156.400 282.851 C 156.400 283.048,157.390 283.694,158.600 284.288 C 159.810 284.881,160.800 285.599,160.800 285.883 C 160.800 286.167,160.968 286.400,161.173 286.400 C 161.378 286.400,161.647 286.715,161.771 287.100 C 161.894 287.485,162.851 288.146,163.898 288.569 C 164.944 288.993,166.919 290.260,168.287 291.387 C 169.949 292.755,171.658 293.730,173.438 294.324 C 174.903 294.813,176.836 295.795,177.733 296.507 C 179.308 297.754,182.948 299.180,184.600 299.196 C 185.691 299.206,190.519 300.924,191.780 301.750 C 193.504 302.880,194.613 303.161,200.512 303.964 C 217.215 306.237,223.683 306.592,230.800 305.626 C 232.670 305.372,236.180 304.997,238.600 304.791 C 248.518 303.951,252.760 303.259,255.324 302.065 C 258.065 300.789,261.751 299.652,266.600 298.586 C 268.360 298.199,270.080 297.572,270.422 297.193 C 270.765 296.814,271.423 296.383,271.886 296.236 C 272.349 296.089,272.946 295.706,273.213 295.385 C 273.480 295.063,273.997 294.800,274.363 294.800 C 276.102 294.800,280.814 292.804,283.144 291.081 C 284.543 290.047,286.061 289.200,286.518 289.200 C 287.757 289.200,290.800 287.611,290.800 286.964 C 290.800 286.654,291.048 286.400,291.351 286.400 C 291.654 286.400,292.116 286.142,292.378 285.826 C 292.965 285.120,295.434 283.818,296.851 283.469 C 297.429 283.326,298.225 282.716,298.621 282.112 C 299.592 280.630,300.742 279.714,302.300 279.182 C 303.015 278.938,303.600 278.572,303.600 278.369 C 303.600 278.166,303.870 278.000,304.200 278.000 C 304.530 278.000,304.800 277.721,304.800 277.381 C 304.800 276.760,306.702 274.836,307.340 274.813 C 307.527 274.806,309.231 273.270,311.127 271.400 C 313.022 269.530,314.714 268.000,314.886 268.000 C 315.059 268.000,315.200 267.790,315.200 267.534 C 315.200 267.278,316.068 266.243,317.128 265.234 C 318.189 264.225,319.462 262.728,319.957 261.907 C 320.452 261.085,321.403 259.986,322.070 259.464 C 322.737 258.942,323.775 257.544,324.377 256.358 C 324.986 255.158,326.027 253.845,326.721 253.400 C 327.480 252.913,327.975 252.257,327.985 251.724 C 327.993 251.242,328.166 250.745,328.369 250.619 C 328.572 250.494,328.857 249.853,329.001 249.195 C 329.145 248.538,329.384 247.999,329.532 247.997 C 329.821 247.994,330.800 246.062,330.800 245.494 C 330.800 245.304,331.326 244.705,331.970 244.164 C 332.704 243.547,333.283 242.550,333.525 241.490 C 334.348 237.879,335.926 234.076,337.213 232.600 C 337.597 232.160,338.000 231.170,338.109 230.400 C 338.218 229.630,338.501 228.010,338.738 226.800 C 338.975 225.590,339.555 222.260,340.028 219.400 C 340.500 216.540,341.162 212.760,341.498 211.000 C 342.298 206.806,342.269 195.138,341.446 190.418 C 340.513 185.063,339.195 175.524,339.207 174.200 C 339.222 172.419,337.973 164.693,337.557 164.000 C 336.546 162.312,335.200 159.159,335.200 158.476 C 335.200 158.049,334.956 157.003,334.659 156.150 C 334.361 155.298,333.891 153.383,333.613 151.897 C 333.307 150.257,332.690 148.604,332.046 147.697 C 330.514 145.537,328.000 139.132,328.000 137.388 C 328.000 137.064,327.827 136.800,327.616 136.800 C 327.166 136.800,325.200 134.756,325.200 134.287 C 325.200 133.287,322.444 128.324,320.991 126.707 C 320.056 125.666,319.172 124.342,319.027 123.765 C 318.661 122.307,317.614 120.800,316.966 120.800 C 316.668 120.800,315.796 119.817,315.028 118.616 C 313.390 116.057,304.226 106.791,301.439 104.878 C 300.380 104.151,299.423 103.209,299.312 102.786 C 299.197 102.347,298.200 101.585,296.994 101.015 C 295.830 100.464,294.275 99.359,293.539 98.559 C 291.270 96.096,290.695 95.617,288.546 94.404 C 285.950 92.939,285.814 92.713,286.912 91.685 C 288.406 90.286,293.448 90.197,296.048 91.523 M240.970 100.072 C 242.967 100.555,245.246 101.350,246.036 101.840 C 247.469 102.727,248.102 102.933,253.400 104.233 C 254.940 104.611,256.678 105.253,257.262 105.660 C 257.846 106.067,258.477 106.400,258.666 106.400 C 258.854 106.400,259.232 106.760,259.507 107.200 C 259.782 107.640,260.255 108.000,260.558 108.000 C 260.861 108.000,261.624 108.269,262.254 108.598 C 262.884 108.926,263.781 109.196,264.246 109.198 C 264.711 109.199,265.550 109.560,266.109 110.000 C 266.669 110.440,267.257 110.800,267.417 110.800 C 267.577 110.800,268.123 111.247,268.630 111.794 C 269.397 112.622,273.412 114.800,274.171 114.800 C 274.639 114.800,276.400 116.567,276.400 117.036 C 276.400 117.446,279.371 119.200,280.065 119.200 C 280.181 119.200,281.283 120.190,282.512 121.400 C 283.742 122.610,284.930 123.600,285.153 123.600 C 285.797 123.600,296.130 134.007,297.517 136.052 C 298.207 137.070,299.041 138.007,299.369 138.133 C 300.107 138.416,301.782 141.034,302.132 142.452 C 302.274 143.031,302.738 143.595,303.161 143.706 C 303.979 143.920,305.680 146.332,306.188 148.000 C 306.504 149.037,308.329 151.700,308.883 151.933 C 309.058 152.007,309.200 152.262,309.200 152.502 C 309.200 152.741,309.457 153.221,309.771 153.569 C 310.086 153.916,310.792 155.575,311.340 157.256 C 311.889 158.936,312.958 161.186,313.716 162.256 C 315.120 164.237,315.237 164.549,316.022 168.400 C 317.195 174.154,317.748 176.309,318.382 177.600 C 321.476 183.897,321.697 210.872,318.723 219.400 C 317.811 222.018,316.403 227.454,316.401 228.365 C 316.398 230.811,314.780 235.006,313.152 236.788 C 312.497 237.505,311.994 238.514,311.986 239.125 C 311.978 239.716,311.714 240.650,311.400 241.200 C 311.086 241.750,310.822 242.589,310.814 243.064 C 310.806 243.539,310.091 244.825,309.224 245.922 C 308.357 247.018,306.925 249.419,306.041 251.258 C 305.157 253.096,303.966 254.948,303.394 255.373 C 302.822 255.799,301.916 257.059,301.381 258.173 C 300.406 260.203,298.852 262.000,298.072 262.000 C 297.843 262.000,297.245 262.823,296.743 263.828 C 296.191 264.933,295.072 266.213,293.915 267.062 C 292.862 267.836,292.000 268.704,292.000 268.993 C 292.000 269.647,289.364 272.000,288.632 272.000 C 288.335 272.000,287.806 272.436,287.456 272.970 C 286.552 274.351,284.295 276.396,283.674 276.398 C 283.384 276.399,282.126 277.390,280.876 278.600 C 279.627 279.810,278.394 280.800,278.135 280.800 C 277.366 280.800,273.600 282.811,273.600 283.221 C 273.600 283.429,273.339 283.600,273.020 283.600 C 272.701 283.600,272.296 283.825,272.120 284.100 C 271.626 284.872,268.602 286.399,267.546 286.409 C 267.025 286.414,265.700 286.945,264.600 287.588 C 259.936 290.316,257.139 291.301,251.513 292.195 C 250.695 292.325,249.795 292.649,249.513 292.916 C 246.295 295.955,222.806 297.998,206.575 296.652 C 198.350 295.969,193.496 294.839,191.297 293.096 C 190.087 292.137,195.382 289.208,198.353 289.193 C 199.149 289.189,201.510 288.922,203.600 288.600 C 205.690 288.278,208.142 288.011,209.050 288.007 C 209.957 288.003,211.487 287.708,212.450 287.350 C 213.412 286.993,214.920 286.563,215.800 286.395 C 216.680 286.226,218.570 285.813,220.000 285.477 C 222.449 284.901,226.308 284.292,231.800 283.614 C 234.090 283.332,237.712 281.990,238.165 281.257 C 238.282 281.067,240.494 280.216,243.080 279.365 C 246.909 278.106,248.061 277.539,249.291 276.309 C 250.121 275.479,251.025 274.799,251.300 274.798 C 251.575 274.796,252.283 274.543,252.873 274.235 C 253.463 273.927,254.534 273.546,255.252 273.389 C 255.983 273.228,257.213 272.419,258.048 271.550 C 258.869 270.696,260.354 269.648,261.349 269.222 C 262.559 268.703,263.519 267.900,264.249 266.797 C 264.850 265.890,265.894 264.868,266.570 264.526 C 268.270 263.666,269.198 262.792,269.213 262.038 C 269.226 261.363,270.939 259.209,271.481 259.187 C 272.023 259.164,273.600 257.698,273.600 257.216 C 273.600 256.276,274.961 254.151,276.455 252.761 C 277.305 251.970,278.000 251.098,278.000 250.823 C 278.000 250.548,278.255 249.846,278.566 249.262 C 278.877 248.678,279.523 247.390,280.002 246.400 C 280.481 245.410,281.384 244.126,282.009 243.547 C 282.693 242.914,283.258 241.877,283.426 240.947 C 283.581 240.096,283.953 238.914,284.253 238.320 C 284.554 237.726,284.804 236.826,284.809 236.320 C 284.814 235.814,285.170 234.950,285.600 234.400 C 286.030 233.850,286.386 233.203,286.391 232.962 C 286.396 232.721,286.742 232.215,287.159 231.837 C 287.577 231.459,288.007 230.576,288.116 229.875 C 288.224 229.174,288.520 227.430,288.773 226.000 C 289.026 224.570,289.593 221.240,290.033 218.600 C 290.473 215.960,291.095 212.446,291.416 210.791 C 292.156 206.978,292.169 199.118,291.442 195.882 C 291.135 194.517,290.498 191.150,290.028 188.400 C 289.557 185.650,288.907 182.230,288.583 180.800 C 288.258 179.370,287.995 177.795,287.997 177.300 C 287.998 176.805,287.775 176.399,287.500 176.397 C 286.575 176.391,283.600 169.938,283.600 167.938 C 283.600 167.559,282.880 166.417,282.000 165.400 C 281.120 164.383,280.400 163.395,280.400 163.204 C 280.400 163.013,280.175 162.619,279.900 162.329 C 279.285 161.679,278.001 158.951,277.997 158.286 C 277.996 158.019,277.336 157.351,276.531 156.803 C 275.597 156.167,274.718 155.043,274.103 153.701 C 273.573 152.543,272.748 151.389,272.270 151.137 C 271.094 150.517,269.618 148.900,269.183 147.756 C 268.987 147.240,267.921 146.167,266.813 145.371 C 265.706 144.576,264.800 143.688,264.800 143.398 C 264.800 142.792,262.571 140.806,261.869 140.787 C 261.305 140.772,259.200 138.975,259.200 138.508 C 259.200 137.945,257.667 136.832,256.506 136.551 C 255.360 136.273,250.800 133.289,250.800 132.816 C 250.800 132.509,247.134 130.993,245.528 130.637 C 244.938 130.506,244.211 130.174,243.911 129.899 C 242.316 128.438,238.126 126.409,236.692 126.404 C 234.738 126.397,227.575 124.256,225.000 122.909 C 222.442 121.571,199.070 121.548,196.600 122.881 C 194.305 124.120,186.115 126.400,183.960 126.400 C 182.766 126.400,180.357 127.453,177.400 129.268 C 175.637 130.350,173.707 131.075,170.446 131.879 C 169.921 132.008,168.346 132.982,166.945 134.042 C 165.544 135.102,163.723 136.152,162.899 136.374 C 162.074 136.596,160.804 137.323,160.075 137.989 C 159.347 138.655,158.604 139.200,158.424 139.200 C 158.245 139.200,157.884 139.458,157.622 139.774 C 157.027 140.490,154.560 141.783,153.100 142.144 C 152.495 142.293,152.000 142.661,152.000 142.962 C 152.000 143.761,149.149 146.400,148.285 146.400 C 147.880 146.400,146.526 147.390,145.276 148.600 C 142.797 151.001,142.612 151.066,140.618 150.233 C 138.591 149.386,137.790 147.973,138.521 146.530 C 138.835 145.909,139.216 144.720,139.367 143.888 C 139.662 142.259,141.061 139.600,141.624 139.600 C 142.195 139.600,143.600 137.895,143.600 137.202 C 143.600 136.280,145.393 133.972,146.802 133.080 C 147.461 132.663,148.000 132.062,148.000 131.744 C 148.000 131.003,148.332 130.607,152.255 126.668 C 158.076 120.822,159.769 119.345,161.700 118.430 C 162.745 117.934,163.600 117.306,163.600 117.034 C 163.600 116.285,165.188 115.036,167.200 114.201 C 168.190 113.791,169.606 112.993,170.348 112.427 C 171.839 111.291,173.584 110.110,174.200 109.821 C 175.123 109.389,179.616 108.000,180.091 108.000 C 180.375 108.000,180.832 107.640,181.107 107.200 C 181.382 106.760,181.853 106.400,182.154 106.400 C 182.456 106.400,182.914 106.144,183.173 105.832 C 183.587 105.333,185.563 104.808,193.304 103.135 C 194.351 102.909,196.061 102.316,197.104 101.818 C 203.271 98.870,231.372 97.752,240.970 100.072 " stroke="none" fill="#80bd1e" fill-rule="evenodd"></path><path id="path1" d="M188.600 34.274 C 176.027 34.917,169.700 35.844,167.536 37.360 C 167.033 37.712,166.167 37.996,165.611 37.992 C 161.535 37.957,150.483 40.441,148.600 41.814 C 147.204 42.832,145.098 43.600,143.702 43.600 C 141.383 43.600,136.254 45.538,134.200 47.191 C 133.760 47.546,132.320 48.161,131.000 48.559 C 127.403 49.644,125.002 50.778,123.607 52.053 C 122.918 52.682,121.870 53.298,121.277 53.422 C 120.685 53.547,119.609 53.908,118.886 54.224 C 118.164 54.541,117.331 54.800,117.036 54.800 C 116.741 54.800,115.770 55.487,114.878 56.326 C 113.987 57.166,112.480 58.177,111.529 58.574 C 108.626 59.786,108.000 60.122,108.000 60.468 C 108.000 60.650,107.764 60.800,107.475 60.800 C 107.186 60.800,106.421 61.354,105.775 62.032 C 105.129 62.710,103.683 63.700,102.562 64.232 C 100.497 65.212,99.507 66.073,99.093 67.249 C 98.967 67.606,98.070 68.282,97.099 68.752 C 95.258 69.643,93.895 70.903,93.471 72.103 C 93.334 72.490,92.722 73.028,92.111 73.299 C 91.500 73.569,90.762 74.018,90.471 74.295 C 90.181 74.573,89.818 74.800,89.666 74.800 C 89.385 74.800,88.651 76.028,88.171 77.300 C 88.026 77.685,87.695 78.000,87.437 78.000 C 86.715 78.000,83.819 80.865,83.285 82.108 C 83.024 82.717,82.403 83.375,81.905 83.570 C 80.561 84.095,79.473 85.265,78.667 87.051 C 78.214 88.057,77.544 88.797,76.849 89.059 C 76.184 89.310,75.302 90.250,74.616 91.437 C 73.993 92.517,72.744 94.125,71.841 95.010 C 70.939 95.896,69.930 97.156,69.600 97.810 C 68.950 99.100,68.874 99.213,67.468 101.000 C 64.538 104.722,63.600 106.144,63.600 106.859 C 63.600 107.748,63.026 108.437,61.692 109.151 C 61.201 109.413,60.800 109.892,60.800 110.214 C 60.800 110.536,60.657 110.800,60.483 110.800 C 60.160 110.800,58.000 115.223,58.000 115.885 C 58.000 116.086,57.456 116.771,56.791 117.408 C 55.620 118.530,54.004 121.553,53.481 123.600 C 53.340 124.150,52.805 125.050,52.291 125.600 C 51.005 126.976,49.423 130.131,48.580 133.000 C 48.192 134.320,47.543 135.699,47.138 136.064 C 46.732 136.429,46.400 137.014,46.400 137.364 C 46.400 137.714,46.242 138.000,46.049 138.000 C 45.594 138.000,44.134 141.981,43.556 144.800 C 43.056 147.237,42.717 148.026,41.757 148.986 C 40.974 149.769,39.202 154.856,39.196 156.338 C 39.193 156.922,38.923 158.284,38.596 159.364 C 38.268 160.444,38.000 161.814,38.000 162.410 C 38.000 163.005,37.675 163.921,37.278 164.446 C 32.269 171.068,31.412 223.953,36.065 239.284 C 36.513 240.760,37.132 242.177,37.440 242.433 C 37.748 242.689,38.002 243.461,38.005 244.149 C 38.007 244.837,38.275 246.390,38.600 247.600 C 38.925 248.810,39.193 250.291,39.195 250.892 C 39.202 252.530,40.815 257.165,42.077 259.171 C 42.689 260.144,43.301 261.584,43.436 262.371 C 43.929 265.242,45.789 270.118,46.806 271.207 C 47.381 271.822,48.183 273.467,48.590 274.862 C 49.510 278.017,50.680 280.285,52.065 281.593 C 52.651 282.147,53.321 283.320,53.555 284.200 C 54.267 286.880,56.520 290.800,57.348 290.800 C 57.788 290.800,58.032 291.250,59.347 294.492 C 59.680 295.312,60.630 296.716,61.458 297.611 C 62.884 299.152,64.303 301.222,65.152 303.000 C 65.362 303.440,66.359 304.588,67.367 305.550 C 68.375 306.513,69.206 307.593,69.213 307.950 C 69.227 308.707,70.967 310.800,71.581 310.800 C 71.811 310.800,72.000 310.968,72.000 311.173 C 72.000 311.378,72.360 311.660,72.800 311.800 C 73.240 311.940,73.600 312.380,73.600 312.778 C 73.600 313.567,76.442 316.800,77.137 316.800 C 77.373 316.800,78.019 317.573,78.572 318.517 C 79.544 320.174,81.536 322.000,82.374 322.000 C 82.597 322.000,83.054 322.530,83.389 323.178 C 84.280 324.903,85.700 326.310,86.837 326.595 C 87.434 326.745,88.251 327.537,88.878 328.575 C 89.577 329.732,90.531 330.609,91.757 331.221 C 92.766 331.725,93.998 332.732,94.495 333.459 C 94.993 334.186,96.210 335.223,97.200 335.765 C 98.190 336.306,99.651 337.439,100.446 338.282 C 101.851 339.771,105.642 342.000,106.770 342.000 C 107.077 342.000,107.829 342.560,108.440 343.245 C 109.642 344.591,110.786 345.280,113.622 346.366 C 116.996 347.658,118.000 348.193,118.000 348.698 C 118.000 348.974,118.270 349.200,118.600 349.200 C 118.930 349.200,119.200 349.358,119.200 349.551 C 119.200 349.745,119.695 350.078,120.300 350.291 C 120.905 350.505,122.030 350.903,122.800 351.175 C 123.570 351.448,124.920 351.845,125.800 352.058 C 126.680 352.272,127.850 352.931,128.400 353.523 C 129.430 354.632,132.188 355.842,135.000 356.419 C 136.971 356.823,139.459 357.848,139.797 358.395 C 140.482 359.504,145.079 360.966,151.155 362.007 C 152.341 362.210,153.601 362.628,153.955 362.937 C 155.526 364.302,162.589 366.400,165.618 366.400 C 167.341 366.400,174.403 367.905,174.998 368.399 C 175.233 368.593,176.770 369.043,178.413 369.399 C 193.316 372.620,237.380 371.989,243.896 368.461 C 245.041 367.841,251.765 366.415,253.600 366.403 C 256.030 366.388,261.693 364.863,264.600 363.441 C 267.152 362.193,268.595 361.787,274.000 360.793 C 274.990 360.611,276.610 360.003,277.600 359.443 C 281.597 357.181,282.300 356.855,283.794 356.575 C 286.297 356.105,290.103 354.422,291.400 353.211 C 292.060 352.595,293.140 351.995,293.800 351.878 C 296.362 351.422,299.441 350.066,301.008 348.703 C 301.909 347.919,303.446 347.048,304.423 346.767 C 305.400 346.485,306.678 345.927,307.262 345.527 C 307.846 345.127,308.491 344.800,308.695 344.800 C 308.899 344.800,309.682 344.196,310.433 343.457 C 311.185 342.719,312.700 341.787,313.800 341.387 C 314.900 340.987,316.708 339.899,317.818 338.969 C 319.629 337.451,321.127 336.473,323.906 334.992 C 324.850 334.489,326.400 332.879,326.400 332.402 C 326.400 332.251,327.292 331.642,328.382 331.048 C 329.472 330.455,330.777 329.434,331.282 328.780 C 331.787 328.126,333.072 326.738,334.138 325.695 C 337.361 322.544,337.428 321.260,334.416 320.358 C 332.646 319.827,330.690 320.476,328.800 322.220 C 327.740 323.198,324.052 324.800,322.861 324.800 C 322.470 324.800,321.802 325.124,321.375 325.520 C 320.949 325.916,320.285 326.361,319.900 326.508 C 319.515 326.655,319.200 327.022,319.200 327.324 C 319.200 327.656,318.210 328.153,316.700 328.580 C 313.112 329.594,310.014 330.989,308.794 332.141 C 308.213 332.689,307.032 333.256,306.169 333.401 C 305.306 333.545,303.921 333.919,303.092 334.232 C 302.262 334.544,301.182 334.804,300.692 334.809 C 300.201 334.814,299.350 335.170,298.800 335.600 C 298.250 336.030,297.542 336.386,297.226 336.391 C 296.910 336.396,296.280 336.732,295.826 337.138 C 295.047 337.833,291.224 338.849,287.200 339.430 C 286.210 339.573,284.793 339.939,284.051 340.245 C 283.309 340.550,282.299 340.800,281.807 340.800 C 281.315 340.800,280.255 341.246,279.452 341.791 C 278.614 342.360,276.928 342.955,275.496 343.188 C 267.884 344.427,265.131 344.800,263.592 344.800 C 261.436 344.800,255.048 346.276,253.200 347.201 C 252.284 347.659,250.418 347.979,247.800 348.128 C 245.600 348.252,240.920 348.565,237.400 348.823 C 228.315 349.489,214.320 348.816,210.600 347.535 C 205.283 345.703,200.775 344.672,193.233 343.562 C 191.821 343.354,189.391 342.578,187.833 341.837 C 184.782 340.387,182.562 339.645,178.264 338.642 C 176.759 338.291,175.021 337.642,174.402 337.202 C 173.783 336.761,173.101 336.400,172.887 336.400 C 172.673 336.400,172.291 336.151,172.039 335.847 C 171.787 335.543,170.279 334.891,168.690 334.399 C 164.992 333.254,163.600 332.681,163.600 332.302 C 163.600 332.136,163.324 332.000,162.987 332.000 C 162.651 332.000,162.271 331.730,162.145 331.400 C 162.018 331.070,161.741 330.800,161.529 330.800 C 161.316 330.800,160.873 330.530,160.543 330.201 C 160.214 329.871,159.462 329.502,158.872 329.380 C 157.176 329.030,155.150 327.949,153.185 326.348 C 152.187 325.534,150.657 324.558,149.785 324.179 C 146.676 322.826,146.411 322.664,146.194 321.981 C 145.973 321.286,143.151 319.200,142.431 319.200 C 142.219 319.200,141.000 318.246,139.723 317.081 C 138.445 315.915,136.860 314.561,136.200 314.072 C 134.590 312.879,129.874 308.573,128.062 306.642 C 127.258 305.786,125.578 304.023,124.328 302.726 C 123.078 301.429,121.998 300.220,121.928 300.039 C 121.719 299.504,119.501 296.739,118.059 295.216 C 117.321 294.437,116.288 292.956,115.764 291.925 C 115.240 290.893,114.179 289.567,113.406 288.977 C 112.633 288.388,112.000 287.676,112.000 287.396 C 112.000 286.362,109.688 281.983,108.622 281.000 C 107.739 280.185,106.814 278.415,105.986 275.958 C 105.164 273.519,103.973 271.432,102.927 270.600 C 102.650 270.380,101.972 268.490,101.420 266.400 C 100.299 262.154,99.379 259.790,98.383 258.600 C 97.643 257.716,96.783 254.284,95.777 248.200 C 95.039 243.734,93.829 239.153,92.959 237.525 C 91.338 234.493,91.146 194.238,92.744 192.255 C 93.604 191.187,95.934 180.777,96.606 175.000 C 96.814 173.205,97.292 171.970,100.027 166.156 C 100.452 165.252,100.800 164.060,100.800 163.506 C 100.800 162.953,101.070 161.735,101.400 160.800 C 101.730 159.865,102.000 158.670,102.000 158.146 C 102.000 157.621,102.360 156.884,102.800 156.507 C 103.240 156.130,103.600 155.684,103.600 155.516 C 103.600 155.347,103.890 154.871,104.244 154.458 C 104.942 153.642,106.366 149.825,106.387 148.712 C 106.403 147.881,107.964 144.800,108.369 144.800 C 108.757 144.800,111.474 139.309,111.833 137.800 C 111.990 137.140,112.704 136.060,113.420 135.400 C 114.528 134.378,117.200 129.508,117.200 128.511 C 117.200 128.333,117.998 127.415,118.974 126.469 C 119.949 125.524,120.863 124.224,121.004 123.580 C 121.146 122.937,122.049 121.600,123.011 120.610 C 123.973 119.620,125.257 117.962,125.865 116.925 C 127.729 113.744,141.273 100.800,142.737 100.800 C 142.963 100.800,144.103 99.810,145.271 98.600 C 146.439 97.390,147.625 96.400,147.905 96.400 C 148.823 96.400,151.620 94.393,152.065 93.416 C 152.305 92.891,152.973 92.349,153.550 92.212 C 155.272 91.802,158.835 89.888,160.132 88.676 C 162.037 86.897,162.896 86.400,164.065 86.400 C 164.663 86.400,165.251 86.241,165.371 86.046 C 165.491 85.852,166.404 85.310,167.399 84.843 C 168.394 84.375,169.594 83.606,170.066 83.134 C 170.538 82.662,172.561 81.788,174.562 81.190 C 178.306 80.073,179.348 79.611,181.406 78.155 C 182.063 77.690,183.590 77.093,184.800 76.829 C 186.010 76.564,188.301 76.000,189.892 75.574 C 191.482 75.148,193.012 74.797,193.292 74.793 C 193.571 74.790,195.060 74.160,196.600 73.394 C 198.140 72.628,199.940 72.001,200.600 72.001 C 201.260 72.001,203.870 71.738,206.400 71.417 C 227.377 68.754,235.444 68.728,258.600 71.252 C 267.321 72.203,268.531 72.393,269.154 72.912 C 270.518 74.048,276.238 75.772,280.907 76.454 C 282.176 76.639,283.956 77.198,284.863 77.695 C 289.376 80.170,290.656 80.787,291.292 80.793 C 292.983 80.810,297.466 82.602,298.477 83.666 C 299.070 84.290,299.824 84.800,300.154 84.800 C 300.483 84.800,300.856 84.967,300.982 85.171 C 301.108 85.375,301.884 85.748,302.706 86.000 C 305.028 86.711,307.642 88.091,308.981 89.312 C 309.665 89.936,311.378 90.775,312.886 91.225 C 314.364 91.665,315.804 92.347,316.086 92.739 C 317.827 95.157,319.559 93.617,319.234 89.939 C 319.016 87.455,318.874 87.142,317.100 85.220 C 316.055 84.089,315.200 82.901,315.200 82.581 C 315.200 82.262,315.035 82.000,314.833 82.000 C 314.631 82.000,312.816 80.380,310.800 78.400 C 308.784 76.420,306.988 74.800,306.810 74.800 C 306.632 74.800,306.382 74.530,306.255 74.200 C 306.129 73.870,305.757 73.600,305.430 73.600 C 305.103 73.600,303.877 72.649,302.705 71.487 C 300.837 69.633,298.364 68.022,297.340 67.989 C 297.153 67.983,296.559 67.263,296.020 66.389 C 295.480 65.515,294.760 64.798,294.420 64.796 C 293.634 64.791,290.363 62.824,287.924 60.888 C 286.891 60.070,285.129 59.075,284.007 58.678 C 282.885 58.280,281.299 57.317,280.483 56.538 C 279.014 55.133,277.291 54.314,274.200 53.550 C 273.312 53.330,272.121 52.630,271.523 51.977 C 270.930 51.330,270.249 50.800,270.008 50.800 C 269.768 50.800,269.173 50.540,268.686 50.222 C 268.199 49.905,267.080 49.462,266.200 49.239 C 265.320 49.015,263.745 48.615,262.700 48.349 C 261.655 48.083,260.800 47.718,260.800 47.538 C 260.800 46.776,257.492 45.221,254.172 44.421 C 248.249 42.996,247.445 42.742,246.315 41.938 C 244.951 40.968,239.129 39.205,237.230 39.186 C 236.443 39.178,234.630 38.915,233.200 38.600 C 231.770 38.285,229.965 38.022,229.189 38.014 C 228.413 38.006,227.412 37.744,226.965 37.430 C 223.707 35.148,203.695 33.502,188.600 34.274 M289.600 90.682 C 285.810 91.042,285.366 92.610,288.546 94.404 C 290.695 95.617,291.270 96.096,293.539 98.559 C 294.275 99.359,295.830 100.464,296.994 101.015 C 298.200 101.585,299.197 102.347,299.312 102.786 C 299.423 103.209,300.380 104.151,301.439 104.878 C 304.226 106.791,313.390 116.057,315.028 118.616 C 315.796 119.817,316.668 120.800,316.966 120.800 C 317.614 120.800,318.661 122.307,319.027 123.765 C 319.172 124.342,320.056 125.666,320.991 126.707 C 322.444 128.324,325.200 133.287,325.200 134.287 C 325.200 134.756,327.166 136.800,327.616 136.800 C 327.827 136.800,328.000 137.064,328.000 137.388 C 328.000 139.132,330.514 145.537,332.046 147.697 C 332.690 148.604,333.307 150.257,333.613 151.897 C 333.891 153.383,334.361 155.298,334.659 156.150 C 334.956 157.003,335.200 158.049,335.200 158.476 C 335.200 159.159,336.546 162.312,337.557 164.000 C 337.973 164.693,339.222 172.419,339.207 174.200 C 339.195 175.524,340.513 185.063,341.446 190.418 C 342.269 195.138,342.298 206.806,341.498 211.000 C 341.162 212.760,340.500 216.540,340.028 219.400 C 339.555 222.260,338.975 225.590,338.738 226.800 C 338.501 228.010,338.218 229.630,338.109 230.400 C 338.000 231.170,337.597 232.160,337.213 232.600 C 335.926 234.076,334.348 237.879,333.525 241.490 C 333.283 242.550,332.704 243.547,331.970 244.164 C 331.326 244.705,330.800 245.304,330.800 245.494 C 330.800 246.062,329.821 247.994,329.532 247.997 C 329.384 247.999,329.145 248.538,329.001 249.195 C 328.857 249.853,328.572 250.494,328.369 250.619 C 328.166 250.745,327.993 251.242,327.985 251.724 C 327.975 252.257,327.480 252.913,326.721 253.400 C 326.027 253.845,324.986 255.158,324.377 256.358 C 323.775 257.544,322.737 258.942,322.070 259.464 C 321.403 259.986,320.452 261.085,319.957 261.907 C 319.462 262.728,318.189 264.225,317.128 265.234 C 316.068 266.243,315.200 267.278,315.200 267.534 C 315.200 267.790,315.059 268.000,314.886 268.000 C 314.714 268.000,313.022 269.530,311.127 271.400 C 309.231 273.270,307.527 274.806,307.340 274.813 C 306.702 274.836,304.800 276.760,304.800 277.381 C 304.800 277.721,304.530 278.000,304.200 278.000 C 303.870 278.000,303.600 278.166,303.600 278.369 C 303.600 278.572,303.015 278.938,302.300 279.182 C 300.742 279.714,299.592 280.630,298.621 282.112 C 298.225 282.716,297.429 283.326,296.851 283.469 C 295.434 283.818,292.965 285.120,292.378 285.826 C 292.116 286.142,291.654 286.400,291.351 286.400 C 291.048 286.400,290.800 286.654,290.800 286.964 C 290.800 287.611,287.757 289.200,286.518 289.200 C 286.061 289.200,284.543 290.047,283.144 291.081 C 280.814 292.804,276.102 294.800,274.363 294.800 C 273.997 294.800,273.480 295.063,273.213 295.385 C 272.946 295.706,272.349 296.089,271.886 296.236 C 271.423 296.383,270.765 296.814,270.422 297.193 C 270.080 297.572,268.360 298.199,266.600 298.586 C 261.751 299.652,258.065 300.789,255.324 302.065 C 252.760 303.259,248.518 303.951,238.600 304.791 C 236.180 304.997,232.670 305.372,230.800 305.626 C 223.683 306.592,217.215 306.237,200.512 303.964 C 194.613 303.161,193.504 302.880,191.780 301.750 C 190.519 300.924,185.691 299.206,184.600 299.196 C 182.948 299.180,179.308 297.754,177.733 296.507 C 176.836 295.795,174.903 294.813,173.438 294.324 C 171.658 293.730,169.949 292.755,168.287 291.387 C 166.919 290.260,164.944 288.993,163.898 288.569 C 162.851 288.146,161.894 287.485,161.771 287.100 C 161.647 286.715,161.378 286.400,161.173 286.400 C 160.968 286.400,160.800 286.167,160.800 285.883 C 160.800 285.599,159.810 284.881,158.600 284.288 C 157.390 283.694,156.400 283.048,156.400 282.851 C 156.400 282.388,153.215 279.200,152.753 279.200 C 152.280 279.200,150.800 277.698,150.800 277.218 C 150.800 276.761,148.896 274.800,148.452 274.800 C 148.020 274.800,146.400 273.035,146.400 272.565 C 146.400 271.914,144.025 269.262,143.210 269.003 C 142.786 268.868,141.994 267.820,141.452 266.673 C 140.909 265.527,139.801 263.983,138.988 263.244 C 138.175 262.504,137.165 261.119,136.744 260.166 C 136.322 259.213,135.802 258.325,135.589 258.193 C 135.375 258.061,135.200 257.622,135.200 257.218 C 135.200 256.814,134.564 255.924,133.786 255.241 C 132.495 254.107,130.800 251.043,130.800 249.842 C 130.800 249.572,130.440 248.964,130.000 248.492 C 129.560 248.020,129.200 247.554,129.200 247.457 C 129.200 247.360,128.570 246.344,127.800 245.200 C 127.030 244.056,126.400 242.707,126.400 242.203 C 126.400 240.826,123.760 235.500,122.719 234.775 C 122.419 234.566,121.628 231.954,120.743 228.248 C 120.293 226.362,118.948 223.338,118.411 223.007 C 117.838 222.653,116.783 218.985,116.395 216.000 C 115.820 211.567,115.155 208.723,113.915 205.400 C 112.168 200.718,111.511 196.073,110.804 183.400 C 110.448 177.026,109.562 172.215,108.390 170.287 L 107.675 169.112 107.149 170.056 C 106.152 171.842,105.200 174.088,105.200 174.652 C 105.200 174.963,104.854 176.518,104.432 178.108 C 100.657 192.315,99.969 204.290,102.023 220.000 C 102.210 221.430,102.647 225.210,102.995 228.400 C 103.343 231.590,103.805 235.820,104.021 237.800 C 104.928 246.096,105.929 250.374,107.323 251.914 C 107.695 252.326,107.998 253.009,107.995 253.431 C 107.975 256.468,110.433 264.700,112.010 266.877 C 112.654 267.767,113.302 269.137,113.449 269.923 C 113.922 272.444,115.651 276.169,116.843 277.236 C 117.479 277.805,118.000 278.476,118.000 278.725 C 118.000 279.663,120.953 284.858,121.974 285.717 C 122.559 286.209,123.448 287.460,123.950 288.496 C 124.732 290.112,126.403 291.986,127.485 292.462 C 127.658 292.538,128.218 293.455,128.728 294.500 C 129.238 295.545,129.786 296.400,129.944 296.400 C 130.365 296.400,133.600 299.389,133.600 299.778 C 133.600 300.200,135.531 302.000,135.983 302.000 C 136.172 302.000,137.067 302.886,137.973 303.968 C 138.880 305.051,140.382 306.383,141.311 306.929 C 142.240 307.475,143.416 308.487,143.924 309.178 C 144.433 309.868,145.828 310.897,147.024 311.464 C 148.221 312.030,149.200 312.715,149.200 312.985 C 149.200 313.723,150.315 314.585,153.228 316.099 C 155.495 317.278,156.547 318.031,158.956 320.200 C 159.200 320.420,160.467 320.955,161.772 321.389 C 163.281 321.892,164.577 322.655,165.336 323.489 C 165.992 324.210,166.765 324.800,167.055 324.800 C 167.344 324.800,168.170 325.159,168.890 325.599 C 169.611 326.038,170.563 326.398,171.006 326.399 C 171.778 326.400,174.784 327.811,175.200 328.368 C 175.815 329.191,178.948 330.545,182.179 331.384 C 184.208 331.912,186.753 332.862,187.834 333.497 C 189.841 334.675,194.148 335.975,198.799 336.807 C 200.229 337.063,202.029 337.507,202.799 337.794 C 208.080 339.759,212.018 340.694,216.200 340.975 C 218.180 341.108,221.600 341.387,223.800 341.594 C 229.166 342.100,246.681 342.093,252.400 341.583 C 254.930 341.357,259.070 341.006,261.600 340.803 C 266.154 340.439,271.504 339.202,272.000 338.400 C 272.312 337.896,277.402 336.399,278.799 336.401 C 280.201 336.403,285.670 334.779,286.431 334.134 C 286.779 333.840,287.184 333.600,287.331 333.600 C 287.479 333.600,287.960 333.240,288.400 332.800 C 288.840 332.360,289.581 332.000,290.046 332.000 C 291.763 332.000,298.428 329.387,299.200 328.411 C 299.667 327.820,302.352 326.400,303.000 326.400 C 303.803 326.400,305.882 325.212,308.134 323.468 C 309.860 322.130,312.318 320.800,313.064 320.800 C 313.337 320.800,314.424 319.972,315.480 318.960 C 316.536 317.947,318.120 316.799,319.000 316.407 C 319.880 316.016,321.371 314.956,322.313 314.051 C 323.256 313.147,324.516 312.153,325.113 311.844 C 325.711 311.534,326.704 310.812,327.321 310.240 C 327.937 309.668,328.493 309.200,328.555 309.200 C 328.685 309.200,331.841 306.294,335.404 302.894 C 336.726 301.632,338.260 300.240,338.814 299.800 C 339.367 299.360,340.442 298.169,341.204 297.153 C 341.965 296.137,343.088 295.020,343.698 294.670 C 344.308 294.320,344.981 293.576,345.194 293.017 C 345.406 292.457,345.765 292.000,345.990 292.000 C 346.216 292.000,346.400 291.809,346.400 291.577 C 346.400 291.344,347.165 290.338,348.100 289.341 C 350.095 287.216,351.758 284.648,352.142 283.100 C 352.292 282.495,352.637 281.994,352.908 281.987 C 353.803 281.963,354.995 280.626,355.751 278.800 C 356.993 275.798,357.334 275.172,358.286 274.145 C 358.789 273.603,359.200 273.010,359.200 272.828 C 359.200 272.647,359.458 272.284,359.773 272.023 C 360.088 271.761,360.829 270.029,361.420 268.174 C 362.011 266.318,362.621 264.800,362.776 264.800 C 363.384 264.800,365.052 261.672,365.708 259.300 C 366.089 257.925,366.704 255.701,367.076 254.357 C 367.448 253.013,368.044 251.528,368.401 251.057 C 369.408 249.725,370.799 245.687,370.810 244.064 C 370.815 243.259,370.996 241.880,371.212 241.000 C 371.429 240.120,371.785 237.467,372.004 235.105 C 372.223 232.742,372.656 230.132,372.967 229.305 C 375.717 221.965,375.626 198.481,372.827 193.251 C 372.615 192.854,372.255 190.566,372.027 188.165 C 371.114 178.536,369.773 171.922,368.363 170.085 C 367.977 169.582,367.364 167.782,367.002 166.085 C 365.750 160.229,364.524 156.400,363.902 156.400 C 363.736 156.400,363.600 156.139,363.600 155.820 C 363.600 155.501,363.354 155.096,363.053 154.920 C 362.752 154.744,362.006 152.890,361.395 150.800 C 360.252 146.890,359.700 145.727,358.166 144.000 C 357.678 143.450,356.988 142.131,356.633 141.069 C 355.867 138.775,354.905 136.848,354.148 136.091 C 353.847 135.790,353.600 135.376,353.600 135.171 C 353.600 134.967,353.365 134.800,353.077 134.800 C 352.789 134.800,351.981 133.649,351.281 132.242 C 350.388 130.447,349.583 129.433,348.584 128.844 C 347.801 128.382,346.905 127.418,346.591 126.702 C 345.855 125.018,344.867 123.900,343.519 123.226 C 342.925 122.929,342.274 122.216,342.074 121.643 C 341.656 120.446,339.291 118.000,338.551 118.000 C 338.278 118.000,337.946 117.659,337.814 117.243 C 337.458 116.122,335.020 113.879,333.648 113.410 C 332.989 113.184,332.033 112.397,331.525 111.659 C 330.619 110.347,330.202 110.057,327.045 108.545 C 326.190 108.135,325.404 107.485,325.299 107.100 C 325.193 106.715,324.961 106.400,324.782 106.400 C 324.603 106.400,324.219 106.168,323.929 105.884 C 323.221 105.194,320.449 103.789,319.174 103.475 C 317.984 103.182,316.400 101.913,316.400 101.253 C 316.400 101.004,316.203 100.800,315.962 100.800 C 315.721 100.800,315.046 100.466,314.462 100.057 C 313.878 99.648,312.950 99.213,312.400 99.089 C 310.321 98.623,308.555 97.742,307.230 96.510 C 306.000 95.365,301.570 93.600,299.927 93.600 C 299.625 93.600,298.933 93.288,298.389 92.907 C 295.560 90.923,293.242 90.336,289.600 90.682 M212.000 99.166 C 205.437 99.497,199.897 100.483,197.104 101.818 C 196.061 102.316,194.351 102.909,193.304 103.135 C 185.563 104.808,183.587 105.333,183.173 105.832 C 182.914 106.144,182.456 106.400,182.154 106.400 C 181.853 106.400,181.382 106.760,181.107 107.200 C 180.832 107.640,180.375 108.000,180.091 108.000 C 179.616 108.000,175.123 109.389,174.200 109.821 C 173.584 110.110,171.839 111.291,170.348 112.427 C 169.606 112.993,168.190 113.791,167.200 114.201 C 165.188 115.036,163.600 116.285,163.600 117.034 C 163.600 117.306,162.745 117.934,161.700 118.430 C 159.769 119.345,158.076 120.822,152.255 126.668 C 148.332 130.607,148.000 131.003,148.000 131.744 C 148.000 132.062,147.461 132.663,146.802 133.080 C 145.393 133.972,143.600 136.280,143.600 137.202 C 143.600 137.895,142.195 139.600,141.624 139.600 C 141.061 139.600,139.662 142.259,139.367 143.888 C 139.216 144.720,138.835 145.909,138.521 146.530 C 137.790 147.973,138.591 149.386,140.618 150.233 C 142.612 151.066,142.797 151.001,145.276 148.600 C 146.526 147.390,147.880 146.400,148.285 146.400 C 149.149 146.400,152.000 143.761,152.000 142.962 C 152.000 142.661,152.495 142.293,153.100 142.144 C 154.560 141.783,157.027 140.490,157.622 139.774 C 157.884 139.458,158.245 139.200,158.424 139.200 C 158.604 139.200,159.347 138.655,160.075 137.989 C 160.804 137.323,162.074 136.596,162.899 136.374 C 163.723 136.152,165.544 135.102,166.945 134.042 C 168.346 132.982,169.921 132.008,170.446 131.879 C 173.707 131.075,175.637 130.350,177.400 129.268 C 180.357 127.453,182.766 126.400,183.960 126.400 C 186.115 126.400,194.305 124.120,196.600 122.881 C 199.070 121.548,222.442 121.571,225.000 122.909 C 227.575 124.256,234.738 126.397,236.692 126.404 C 238.126 126.409,242.316 128.438,243.911 129.899 C 244.211 130.174,244.938 130.506,245.528 130.637 C 247.134 130.993,250.800 132.509,250.800 132.816 C 250.800 133.289,255.360 136.273,256.506 136.551 C 257.667 136.832,259.200 137.945,259.200 138.508 C 259.200 138.975,261.305 140.772,261.869 140.787 C 262.571 140.806,264.800 142.792,264.800 143.398 C 264.800 143.688,265.706 144.576,266.813 145.371 C 267.921 146.167,268.987 147.240,269.183 147.756 C 269.618 148.900,271.094 150.517,272.270 151.137 C 272.748 151.389,273.573 152.543,274.103 153.701 C 274.718 155.043,275.597 156.167,276.531 156.803 C 277.336 157.351,277.996 158.019,277.997 158.286 C 278.001 158.951,279.285 161.679,279.900 162.329 C 280.175 162.619,280.400 163.013,280.400 163.204 C 280.400 163.395,281.120 164.383,282.000 165.400 C 282.880 166.417,283.600 167.559,283.600 167.938 C 283.600 169.938,286.575 176.391,287.500 176.397 C 287.775 176.399,287.998 176.805,287.997 177.300 C 287.995 177.795,288.258 179.370,288.583 180.800 C 288.907 182.230,289.557 185.650,290.028 188.400 C 290.498 191.150,291.135 194.517,291.442 195.882 C 292.169 199.118,292.156 206.978,291.416 210.791 C 291.095 212.446,290.473 215.960,290.033 218.600 C 289.593 221.240,289.026 224.570,288.773 226.000 C 288.520 227.430,288.224 229.174,288.116 229.875 C 288.007 230.576,287.577 231.459,287.159 231.837 C 286.742 232.215,286.396 232.721,286.391 232.962 C 286.386 233.203,286.030 233.850,285.600 234.400 C 285.170 234.950,284.814 235.814,284.809 236.320 C 284.804 236.826,284.554 237.726,284.253 238.320 C 283.953 238.914,283.581 240.096,283.426 240.947 C 283.258 241.877,282.693 242.914,282.009 243.547 C 281.384 244.126,280.481 245.410,280.002 246.400 C 279.523 247.390,278.877 248.678,278.566 249.262 C 278.255 249.846,278.000 250.548,278.000 250.823 C 278.000 251.098,277.305 251.970,276.455 252.761 C 274.961 254.151,273.600 256.276,273.600 257.216 C 273.600 257.698,272.023 259.164,271.481 259.187 C 270.939 259.209,269.226 261.363,269.213 262.038 C 269.198 262.792,268.270 263.666,266.570 264.526 C 265.894 264.868,264.850 265.890,264.249 266.797 C 263.519 267.900,262.559 268.703,261.349 269.222 C 260.354 269.648,258.869 270.696,258.048 271.550 C 257.213 272.419,255.983 273.228,255.252 273.389 C 254.534 273.546,253.463 273.927,252.873 274.235 C 252.283 274.543,251.575 274.796,251.300 274.798 C 251.025 274.799,250.121 275.479,249.291 276.309 C 248.061 277.539,246.909 278.106,243.080 279.365 C 240.494 280.216,238.282 281.067,238.165 281.257 C 237.712 281.990,234.090 283.332,231.800 283.614 C 226.308 284.292,222.449 284.901,220.000 285.477 C 218.570 285.813,216.680 286.226,215.800 286.395 C 214.920 286.563,213.412 286.993,212.450 287.350 C 211.487 287.708,209.957 288.003,209.050 288.007 C 208.142 288.011,205.690 288.278,203.600 288.600 C 201.510 288.922,199.149 289.189,198.353 289.193 C 195.382 289.208,190.087 292.137,191.297 293.096 C 193.496 294.839,198.350 295.969,206.575 296.652 C 222.806 297.998,246.295 295.955,249.513 292.916 C 249.795 292.649,250.695 292.325,251.513 292.195 C 257.139 291.301,259.936 290.316,264.600 287.588 C 265.700 286.945,267.025 286.414,267.546 286.409 C 268.602 286.399,271.626 284.872,272.120 284.100 C 272.296 283.825,272.701 283.600,273.020 283.600 C 273.339 283.600,273.600 283.429,273.600 283.221 C 273.600 282.811,277.366 280.800,278.135 280.800 C 278.394 280.800,279.627 279.810,280.876 278.600 C 282.126 277.390,283.384 276.399,283.674 276.398 C 284.295 276.396,286.552 274.351,287.456 272.970 C 287.806 272.436,288.335 272.000,288.632 272.000 C 289.364 272.000,292.000 269.647,292.000 268.993 C 292.000 268.704,292.862 267.836,293.915 267.062 C 295.072 266.213,296.191 264.933,296.743 263.828 C 297.245 262.823,297.843 262.000,298.072 262.000 C 298.852 262.000,300.406 260.203,301.381 258.173 C 301.916 257.059,302.822 255.799,303.394 255.373 C 303.966 254.948,305.157 253.096,306.041 251.258 C 306.925 249.419,308.357 247.018,309.224 245.922 C 310.091 244.825,310.806 243.539,310.814 243.064 C 310.822 242.589,311.086 241.750,311.400 241.200 C 311.714 240.650,311.978 239.716,311.986 239.125 C 311.994 238.514,312.497 237.505,313.152 236.788 C 314.780 235.006,316.398 230.811,316.401 228.365 C 316.403 227.454,317.811 222.018,318.723 219.400 C 321.697 210.872,321.476 183.897,318.382 177.600 C 317.748 176.309,317.195 174.154,316.022 168.400 C 315.237 164.549,315.120 164.237,313.716 162.256 C 312.958 161.186,311.889 158.936,311.340 157.256 C 310.792 155.575,310.086 153.916,309.771 153.569 C 309.457 153.221,309.200 152.741,309.200 152.502 C 309.200 152.262,309.058 152.007,308.883 151.933 C 308.329 151.700,306.504 149.037,306.188 148.000 C 305.680 146.332,303.979 143.920,303.161 143.706 C 302.738 143.595,302.274 143.031,302.132 142.452 C 301.782 141.034,300.107 138.416,299.369 138.133 C 299.041 138.007,298.207 137.070,297.517 136.052 C 296.130 134.007,285.797 123.600,285.153 123.600 C 284.930 123.600,283.742 122.610,282.512 121.400 C 281.283 120.190,280.181 119.200,280.065 119.200 C 279.371 119.200,276.400 117.446,276.400 117.036 C 276.400 116.567,274.639 114.800,274.171 114.800 C 273.412 114.800,269.397 112.622,268.630 111.794 C 268.123 111.247,267.577 110.800,267.417 110.800 C 267.257 110.800,266.669 110.440,266.109 110.000 C 265.550 109.560,264.711 109.199,264.246 109.198 C 263.781 109.196,262.884 108.926,262.254 108.598 C 261.624 108.269,260.861 108.000,260.558 108.000 C 260.255 108.000,259.782 107.640,259.507 107.200 C 259.232 106.760,258.854 106.400,258.666 106.400 C 258.477 106.400,257.846 106.067,257.262 105.660 C 256.678 105.253,254.940 104.611,253.400 104.233 C 248.102 102.933,247.469 102.727,246.036 101.840 C 242.079 99.388,228.604 98.329,212.000 99.166 " stroke="none" fill="#ffffff" fill-rule="evenodd"></path></g></svg>